<mxfile host="app.diagrams.net" modified="2023-05-22T02:50:33.767Z" agent="Mozilla/5.0 (Macintosh; Intel Mac OS X 10_15_7) AppleWebKit/605.1.15 (KHTML, like Gecko) Version/16.3 Safari/605.1.15" etag="Ph2Acy2I4yTU_jBfUEm7" version="21.3.2" type="github">
  <diagram name="第 1 页" id="IXS5sU4ZXqfIpx1t65Bs">
    <mxGraphModel dx="1136" dy="802" grid="1" gridSize="10" guides="1" tooltips="1" connect="1" arrows="1" fold="1" page="1" pageScale="1" pageWidth="827" pageHeight="1169" math="0" shadow="0">
      <root>
        <mxCell id="0" />
        <mxCell id="1" parent="0" />
        <mxCell id="KbtPs02u6kyfubwE4KxG-2" value="redis" style="rounded=0;whiteSpace=wrap;html=1;fillColor=#d80073;strokeColor=#A50040;fontColor=#ffffff;" vertex="1" parent="1">
          <mxGeometry x="40" y="120" width="500" height="60" as="geometry" />
        </mxCell>
        <mxCell id="KbtPs02u6kyfubwE4KxG-3" value="&lt;font style=&quot;font-size: 15px;&quot;&gt;user-module&lt;/font&gt;" style="rounded=0;whiteSpace=wrap;html=1;fillColor=#60a917;strokeColor=#2D7600;fontColor=#ffffff;" vertex="1" parent="1">
          <mxGeometry x="40" y="40" width="160" height="60" as="geometry" />
        </mxCell>
        <mxCell id="KbtPs02u6kyfubwE4KxG-5" value="&lt;font style=&quot;font-size: 15px;&quot;&gt;order-module&lt;/font&gt;" style="rounded=0;whiteSpace=wrap;html=1;fillColor=#a20025;strokeColor=#6F0000;fontColor=#ffffff;" vertex="1" parent="1">
          <mxGeometry x="210" y="40" width="160" height="60" as="geometry" />
        </mxCell>
        <mxCell id="KbtPs02u6kyfubwE4KxG-6" value="&lt;font style=&quot;font-size: 15px;&quot;&gt;product-module&lt;/font&gt;" style="rounded=0;whiteSpace=wrap;html=1;fillColor=#6a00ff;strokeColor=#3700CC;fontColor=#ffffff;" vertex="1" parent="1">
          <mxGeometry x="380" y="40" width="160" height="60" as="geometry" />
        </mxCell>
        <mxCell id="KbtPs02u6kyfubwE4KxG-7" value="" style="rounded=0;whiteSpace=wrap;html=1;fillColor=none;" vertex="1" parent="1">
          <mxGeometry x="30" y="30" width="520" height="160" as="geometry" />
        </mxCell>
      </root>
    </mxGraphModel>
  </diagram>
</mxfile>
